<svg xmlns="http://www.w3.org/2000/svg" enable-background="new 0 0 130 130" viewBox="0 0 130 130"><circle cx="65" cy="65" r="64" fill="#F34B50"/><path fill="#E53946" d="M58.8815 120.16101c0-.55517.45005-1.00522 1.00522-1.00522h6.32154c.55278 0 1.00515.45232 1.00515 1.0052s-.45237 1.00524-1.00515 1.00524h-6.32154C59.33155 121.16623 58.8815 120.71618 58.8815 120.16101L58.8815 120.16101zM56.01358 120.16101L56.01358 120.16101c0 .55517-.45005 1.00522-1.00522 1.00522H42.35182c-.55516 0-1.00521-.45005-1.00521-1.00522l0 0c0-.55517.45005-1.00522 1.00521-1.00522h12.65654C55.56353 119.15579 56.01358 119.60584 56.01358 120.16101zM100.29789 110.29339c-.55518 0-1.00513.45001-1.00513 1.00519s.44995 1.00525 1.00513 1.00525h7.8103c.71777-.65454 1.42139-1.32428 2.10864-2.01044H100.29789zM91.20071 111.29849c0-.55517.45005-1.00522 1.00522-1.00522l4.12341.00001c.55278 0 1.00515.45233 1.00515 1.0052 0 .55287-.45237 1.00524-1.00515 1.00524h-4.12341C91.65076 112.30372 91.20071 111.85367 91.20071 111.29849L91.20071 111.29849zM118.03129 41.02758h6.30859c-.27344-.67627-.55884-1.34583-.85449-2.01044h-5.4541c-.55518 0-1.00513.45001-1.00513 1.00519C117.02616 40.57757 117.47611 41.02758 118.03129 41.02758zM113.51167 39.01718h.94627c.55517 0 1.00522.45005 1.00522 1.00522l0 0c0 .55517-.45005 1.00522-1.00522 1.00522h-.94627c-.55514 0-1.00515-.45006-1.00515-1.0052v-.00005C112.50652 39.46724 112.95653 39.01718 113.51167 39.01718zM52.45497 98.34977c0 .55517-.45005 1.00522-1.00522 1.00522L35.44249 99.355c-.55296 0-1.00515-.45237-1.00515-1.00524s.45219-1.0052 1.00515-1.0052l16.00727-.00001C52.00492 97.34455 52.45497 97.7946 52.45497 98.34977L52.45497 98.34977zM54.01631 98.34977L54.01631 98.34977c0-.55517.45005-1.00522 1.00522-1.00522h4.80804c.55516 0 1.00522.45005 1.00522 1.00522l0 0c0 .55517-.45005 1.00522-1.00522 1.00522h-4.80804C54.46636 99.35499 54.01631 98.90494 54.01631 98.34977zM29.21803 35.641c0 .55517.45005 1.00522 1.00522 1.00522l16.00727 0c.55296 0 1.00515-.45237 1.00515-1.00524 0-.55287-.45219-1.0052-1.00515-1.0052l-16.00727 0C29.66809 34.63578 29.21803 35.08583 29.21803 35.641L29.21803 35.641zM27.6567 35.641L27.6567 35.641c0-.55517-.45005-1.00522-1.00522-1.00522l-4.80804 0c-.55517 0-1.00522.45005-1.00522 1.00522v0c0 .55516.45005 1.00522 1.00522 1.00522h4.80804C27.20665 36.64622 27.6567 36.19617 27.6567 35.641zM1.15498 60.65242c.04004-.68018.09985-1.3501.15991-2.00977h9.88013c.55981 0 1.01001.44971 1.01001 1 0 .56006-.4502 1.00977-1.01001 1.00977H1.15498zM13.76461 59.64397L13.76461 59.64397c0-.55517.45005-1.00522 1.00522-1.00522h4.80804c.55517 0 1.00522.45005 1.00522 1.00522l0 0c0 .55517-.45005 1.00522-1.00522 1.00522h-4.80804C14.21466 60.64919 13.76461 60.19913 13.76461 59.64397zM106.74023 73.2365c0 .55517-.45006 1.00522-1.00522 1.00522H89.72775c-.55296 0-1.00515-.45237-1.00515-1.00524 0-.55286.45219-1.0052 1.00515-1.0052h16.00727C106.29018 72.23128 106.74023 72.68133 106.74023 73.2365L106.74023 73.2365zM97.73141 26.89757c0 .55517-.45005 1.00522-1.00522 1.00522l-16.00727 0c-.55296 0-1.00515-.45237-1.00515-1.00524s.45219-1.0052 1.00515-1.0052l16.00727-.00001C97.28136 25.89235 97.73141 26.3424 97.73141 26.89757L97.73141 26.89757zM108.30157 73.2365L108.30157 73.2365c0-.55517.45005-1.00522 1.00522-1.00522l4.80804-.00001c.55517 0 1.00522.45006 1.00522 1.00522v.00001c0 .55516-.45005 1.00522-1.00522 1.00522h-4.80804C108.75162 74.24171 108.30157 73.79166 108.30157 73.2365zM89.60892 5.91235h-4.52295c-.55518 0-1.00513.45007-1.00513 1.00519v.00006c0 .55518.44995 1.00519 1.00513 1.00519h8.85034C92.52128 7.20391 91.08207 6.52666 89.60892 5.91235zM71.99117 7.92281l8.95542 0c.55516 0 1.00522-.45005 1.00522-1.00522v0c0-.55517-.45006-1.00522-1.00522-1.00522l-8.95542 0c-.55296 0-1.00533.45237-1.00533 1.00524S71.43821 7.92281 71.99117 7.92281zM31.77699 14.9379l12.75004 0c.55516 0 1.00525-.45005 1.00529-1.00522v0c.00005-.55517-.44997-1.00522-1.00513-1.00522l-12.75004 0c-.55296 0-1.00518.45237-1.00523 1.00524C30.77188 14.48558 31.22404 14.93791 31.77699 14.9379zM48.14488 13.93268c-.00004.55517.44997 1.00522 1.00513 1.00522h1.0803c.55513 0 1.00518-.45006 1.00523-1.0052.00004-.55518-.44994-1.00524-1.00507-1.00524h-1.08029C48.59501 12.92746 48.14493 13.37751 48.14488 13.93268L48.14488 13.93268zM53.5218 13.93268c-.00005.55517.44997 1.00522 1.00513 1.00522h5.85411c.55513 0 1.00518-.45006 1.00523-1.0052.00005-.55518-.44993-1.00524-1.00507-1.00524H54.5271C53.97193 12.92746 53.52184 13.37751 53.5218 13.93268L53.5218 13.93268zM19.78518 92.3316L19.78518 92.3316c0 .55518-.45005 1.00523-1.00522 1.00523h-1.67143c-.55517 0-1.00522-.45005-1.00522-1.00522l0 0c0-.55517.45005-1.00522 1.00522-1.00522h1.67143C19.33513 91.32639 19.78518 91.77644 19.78518 92.3316zM12.43852 91.32641H6.66801c.30518.67554.61621 1.3476.94409 2.01044h4.82642c.55518 0 1.00537-.45007 1.00537-1.00525S12.99369 91.32641 12.43852 91.32641z"/><g><path fill="#E53946" d="M104.50266,57.72903c0,15.64634-21.91154,45.43443-31.84084,58.12977
			c-2.43621,3.11488-7.14238,3.11488-9.57859,0C53.15394,103.16345,31.2424,73.37537,31.2424,57.72903
			c0-20.22998,16.40015-36.62988,36.63013-36.62988S104.50266,37.49905,104.50266,57.72903z"/><path fill="#FAD553" d="M101.62991,54.85628c0,15.64634-21.91154,45.43443-31.84083,58.12976
			c-2.43622,3.11488-7.14238,3.11488-9.5786,0c-9.92929-12.69534-31.84083-42.48343-31.84083-58.12976
			c0-20.22998,16.40014-36.62988,36.63013-36.62988S101.62991,34.6263,101.62991,54.85628z"/><path fill="#FCDE7E" d="M54.52249 24.95177c-.41699 0-.80566-.26221-.94727-.67847-.17773-.52271.10254-1.09082.625-1.26855 3.47168-1.17993 7.10547-1.77832 10.79981-1.77832.55273 0 1 .44775 1 1s-.44727 1-1 1c-3.47559 0-6.89258.5625-10.15528 1.67188C54.73733 24.93468 54.62893 24.95177 54.52249 24.95177zM33.38968 47.75158c-.08301 0-.16602-.01025-.24902-.03149-.53516-.13745-.85742-.68237-.7207-1.21729 2.02637-7.89966 6.875-14.80054 13.65137-19.43091.45801-.31128 1.0791-.19458 1.38965.26147.3125.45605.19531 1.07837-.26074 1.38989C40.82425 33.0797 36.2637 39.57043 34.35745 46.99987 34.24124 47.45153 33.83499 47.75158 33.38968 47.75158zM47.83303 90.03332c-.3252 0-.64453-.15869-.83691-.45117-7.12891-10.86084-15.62597-25.70166-15.62597-34.72583 0-.55225.44727-1 1-1 .55273 0 1 .44775 1 1 0 6.65552 5.43262 18.59814 15.29785 33.62817.30273.46191.1748 1.08179-.28711 1.38477C48.21194 89.98034 48.02151 90.03332 47.83303 90.03332z"/><path fill="#FAB941" d="M101.62894,54.85607c0,15.6499-21.90991,45.42993-31.83984,58.12988
			c-2.43994,3.11011-7.14014,3.11011-9.58008,0c-0.55005-0.69995-1.12988-1.45996-1.75-2.25977
			c2.43994,1.09985,5.46997,0.48999,7.27002-1.80005c9.92993-12.69995,31.84009-42.48999,31.84009-58.13013
			c0-9.07983-3.31006-17.38989-8.78003-23.79004C96.64896,33.72619,101.62894,43.70617,101.62894,54.85607z"/><circle cx="65" cy="54.856" r="21.374" fill="#168DE2"/><path fill="#2E6BCE" d="M86.36917,54.85607c0,11.80005-9.57007,21.37012-21.37012,21.37012
			c-6.52002,0-12.37012-2.93018-16.28003-7.54004c3.71997,3.13989,8.53003,5.03003,13.77002,5.03003
			c11.80005,0,21.36988-9.57007,21.36988-21.37012c0-5.23999-1.88989-10.05005-5.02979-13.77002
			C83.439,42.48595,86.36917,48.33605,86.36917,54.85607z"/><path fill="#FFF" d="M60.64974,64.90384L60.64974,64.90384c-0.76273,0-1.49365-0.30299-2.03271-0.84205l-6.815-6.81547
				c-1.12304-1.12281-1.12304-2.94331,0-4.06589s2.94238-1.12258,4.06542,0l4.7823,4.78253l12.3123-12.31207
				c1.12305-1.12257,2.94238-1.12257,4.06542,0c1.12304,1.12281,1.12304,2.94308,0,4.06589L62.68245,64.06179
				C62.14339,64.60085,61.41248,64.90384,60.64974,64.90384z"/></g></svg>